<svg xmlns="http://www.w3.org/2000/svg" xmlns:xlink="http://www.w3.org/1999/xlink" width="500" zoomAndPan="magnify" viewBox="0 0 375 374.999991" height="500" preserveAspectRatio="xMidYMid meet" version="1.0"><defs><g/><clipPath id="d6a8e1ea9d"><path d="M 125.160156 62.804688 L 249.660156 62.804688 L 249.660156 205.304688 L 125.160156 205.304688 Z M 125.160156 62.804688 " clip-rule="nonzero"/></clipPath><clipPath id="32890b0b2c"><path d="M 174.867188 82.304688 L 174.867188 62.804688 L 159.472656 62.804688 L 159.472656 66.121094 C 159.472656 68.820312 161.679688 71.023438 164.378906 71.023438 L 165.910156 71.023438 L 165.910156 84.820312 C 142.128906 93.558594 125.175781 116.378906 125.175781 143.167969 C 125.175781 177.476562 153.035156 205.304688 187.382812 205.304688 C 221.730469 205.304688 249.585938 177.476562 249.585938 143.167969 C 249.585938 116.378906 232.632812 93.558594 208.851562 84.820312 L 208.851562 71.023438 L 210.386719 71.023438 C 213.085938 71.023438 215.292969 68.820312 215.292969 66.121094 L 215.292969 62.804688 L 199.894531 62.804688 L 199.894531 91.382812 C 223.289062 97.007812 240.683594 118.066406 240.683594 143.167969 C 240.683594 172.578125 216.796875 196.433594 187.355469 196.433594 C 157.914062 196.433594 134.03125 172.578125 134.03125 143.167969 C 134.03125 118.066406 151.425781 97.035156 174.816406 91.382812 L 174.816406 82.277344 Z M 174.867188 82.304688 " clip-rule="evenodd"/></clipPath><linearGradient x1="39.023692" gradientTransform="matrix(2.596212, 0, 0, 2.593267, 125.20337, 62.803318)" y1="-1.310946" x2="30.069209" gradientUnits="userSpaceOnUse" y2="59.387409" id="100c41104f"><stop stop-opacity="1" stop-color="rgb(36.099243%, 88.198853%, 90.19928%)" offset="0"/><stop stop-opacity="1" stop-color="rgb(36.099243%, 88.198853%, 90.19928%)" offset="0.03125"/><stop stop-opacity="1" stop-color="rgb(36.099243%, 88.198853%, 90.19928%)" offset="0.046875"/><stop stop-opacity="1" stop-color="rgb(36.141968%, 88.21106%, 90.148926%)" offset="0.0546875"/><stop stop-opacity="1" stop-color="rgb(36.376953%, 88.28125%, 89.878845%)" offset="0.0585938"/><stop stop-opacity="1" stop-color="rgb(36.567688%, 88.339233%, 89.660645%)" offset="0.0625"/><stop stop-opacity="1" stop-color="rgb(36.758423%, 88.395691%, 89.440918%)" offset="0.0664062"/><stop stop-opacity="1" stop-color="rgb(36.949158%, 88.452148%, 89.222717%)" offset="0.0703125"/><stop stop-opacity="1" stop-color="rgb(37.138367%, 88.508606%, 89.004517%)" offset="0.0742188"/><stop stop-opacity="1" stop-color="rgb(37.329102%, 88.566589%, 88.786316%)" offset="0.078125"/><stop stop-opacity="1" stop-color="rgb(37.519836%, 88.623047%, 88.566589%)" offset="0.0820312"/><stop stop-opacity="1" stop-color="rgb(37.710571%, 88.679504%, 88.348389%)" offset="0.0859375"/><stop stop-opacity="1" stop-color="rgb(37.901306%, 88.735962%, 88.128662%)" offset="0.0898437"/><stop stop-opacity="1" stop-color="rgb(38.092041%, 88.792419%, 87.910461%)" offset="0.09375"/><stop stop-opacity="1" stop-color="rgb(38.282776%, 88.848877%, 87.690735%)" offset="0.0976562"/><stop stop-opacity="1" stop-color="rgb(38.473511%, 88.90686%, 87.472534%)" offset="0.101562"/><stop stop-opacity="1" stop-color="rgb(38.66272%, 88.963318%, 87.252808%)" offset="0.105469"/><stop stop-opacity="1" stop-color="rgb(38.853455%, 89.019775%, 87.034607%)" offset="0.109375"/><stop stop-opacity="1" stop-color="rgb(39.044189%, 89.076233%, 86.81488%)" offset="0.113281"/><stop stop-opacity="1" stop-color="rgb(39.234924%, 89.134216%, 86.59668%)" offset="0.117187"/><stop stop-opacity="1" stop-color="rgb(39.425659%, 89.190674%, 86.376953%)" offset="0.121094"/><stop stop-opacity="1" stop-color="rgb(39.616394%, 89.247131%, 86.158752%)" offset="0.125"/><stop stop-opacity="1" stop-color="rgb(39.805603%, 89.303589%, 85.939026%)" offset="0.128906"/><stop stop-opacity="1" stop-color="rgb(39.996338%, 89.360046%, 85.720825%)" offset="0.132812"/><stop stop-opacity="1" stop-color="rgb(40.187073%, 89.416504%, 85.501099%)" offset="0.136719"/><stop stop-opacity="1" stop-color="rgb(40.377808%, 89.474487%, 85.282898%)" offset="0.140625"/><stop stop-opacity="1" stop-color="rgb(40.568542%, 89.530945%, 85.063171%)" offset="0.144531"/><stop stop-opacity="1" stop-color="rgb(40.759277%, 89.587402%, 84.844971%)" offset="0.148438"/><stop stop-opacity="1" stop-color="rgb(40.950012%, 89.64386%, 84.625244%)" offset="0.152344"/><stop stop-opacity="1" stop-color="rgb(41.140747%, 89.701843%, 84.407043%)" offset="0.15625"/><stop stop-opacity="1" stop-color="rgb(41.329956%, 89.758301%, 84.187317%)" offset="0.160156"/><stop stop-opacity="1" stop-color="rgb(41.520691%, 89.814758%, 83.969116%)" offset="0.164062"/><stop stop-opacity="1" stop-color="rgb(41.711426%, 89.871216%, 83.74939%)" offset="0.167969"/><stop stop-opacity="1" stop-color="rgb(41.902161%, 89.927673%, 83.531189%)" offset="0.171875"/><stop stop-opacity="1" stop-color="rgb(42.092896%, 89.984131%, 83.311462%)" offset="0.175781"/><stop stop-opacity="1" stop-color="rgb(42.28363%, 90.042114%, 83.093262%)" offset="0.179688"/><stop stop-opacity="1" stop-color="rgb(42.474365%, 90.098572%, 82.873535%)" offset="0.183594"/><stop stop-opacity="1" stop-color="rgb(42.6651%, 90.155029%, 82.655334%)" offset="0.1875"/><stop stop-opacity="1" stop-color="rgb(42.854309%, 90.211487%, 82.435608%)" offset="0.191406"/><stop stop-opacity="1" stop-color="rgb(43.045044%, 90.26947%, 82.217407%)" offset="0.195313"/><stop stop-opacity="1" stop-color="rgb(43.235779%, 90.325928%, 81.999207%)" offset="0.199219"/><stop stop-opacity="1" stop-color="rgb(43.426514%, 90.382385%, 81.781006%)" offset="0.203125"/><stop stop-opacity="1" stop-color="rgb(43.617249%, 90.438843%, 81.561279%)" offset="0.207031"/><stop stop-opacity="1" stop-color="rgb(43.807983%, 90.496826%, 81.343079%)" offset="0.210938"/><stop stop-opacity="1" stop-color="rgb(43.997192%, 90.553284%, 81.123352%)" offset="0.214844"/><stop stop-opacity="1" stop-color="rgb(44.187927%, 90.609741%, 80.905151%)" offset="0.21875"/><stop stop-opacity="1" stop-color="rgb(44.378662%, 90.666199%, 80.685425%)" offset="0.222656"/><stop stop-opacity="1" stop-color="rgb(44.569397%, 90.722656%, 80.467224%)" offset="0.226562"/><stop stop-opacity="1" stop-color="rgb(44.760132%, 90.779114%, 80.247498%)" offset="0.230469"/><stop stop-opacity="1" stop-color="rgb(44.950867%, 90.837097%, 80.029297%)" offset="0.234375"/><stop stop-opacity="1" stop-color="rgb(45.141602%, 90.893555%, 79.80957%)" offset="0.238281"/><stop stop-opacity="1" stop-color="rgb(45.332336%, 90.950012%, 79.59137%)" offset="0.242188"/><stop stop-opacity="1" stop-color="rgb(45.521545%, 91.00647%, 79.371643%)" offset="0.246094"/><stop stop-opacity="1" stop-color="rgb(45.71228%, 91.064453%, 79.153442%)" offset="0.25"/><stop stop-opacity="1" stop-color="rgb(45.903015%, 91.120911%, 78.933716%)" offset="0.253906"/><stop stop-opacity="1" stop-color="rgb(46.09375%, 91.177368%, 78.715515%)" offset="0.257812"/><stop stop-opacity="1" stop-color="rgb(46.284485%, 91.233826%, 78.495789%)" offset="0.261719"/><stop stop-opacity="1" stop-color="rgb(46.47522%, 91.290283%, 78.277588%)" offset="0.265625"/><stop stop-opacity="1" stop-color="rgb(46.665955%, 91.346741%, 78.057861%)" offset="0.269531"/><stop stop-opacity="1" stop-color="rgb(46.856689%, 91.404724%, 77.839661%)" offset="0.273437"/><stop stop-opacity="1" stop-color="rgb(47.045898%, 91.461182%, 77.619934%)" offset="0.277344"/><stop stop-opacity="1" stop-color="rgb(47.236633%, 91.517639%, 77.401733%)" offset="0.28125"/><stop stop-opacity="1" stop-color="rgb(47.427368%, 91.574097%, 77.182007%)" offset="0.285156"/><stop stop-opacity="1" stop-color="rgb(47.618103%, 91.63208%, 76.963806%)" offset="0.289062"/><stop stop-opacity="1" stop-color="rgb(47.808838%, 91.688538%, 76.74408%)" offset="0.292969"/><stop stop-opacity="1" stop-color="rgb(47.999573%, 91.744995%, 76.525879%)" offset="0.296875"/><stop stop-opacity="1" stop-color="rgb(48.190308%, 91.801453%, 76.306152%)" offset="0.300781"/><stop stop-opacity="1" stop-color="rgb(48.381042%, 91.859436%, 76.087952%)" offset="0.304688"/><stop stop-opacity="1" stop-color="rgb(48.570251%, 91.915894%, 75.868225%)" offset="0.308594"/><stop stop-opacity="1" stop-color="rgb(48.760986%, 91.972351%, 75.650024%)" offset="0.3125"/><stop stop-opacity="1" stop-color="rgb(48.951721%, 92.028809%, 75.430298%)" offset="0.316406"/><stop stop-opacity="1" stop-color="rgb(49.142456%, 92.085266%, 75.212097%)" offset="0.320312"/><stop stop-opacity="1" stop-color="rgb(49.333191%, 92.141724%, 74.993896%)" offset="0.324219"/><stop stop-opacity="1" stop-color="rgb(49.523926%, 92.199707%, 74.775696%)" offset="0.328125"/><stop stop-opacity="1" stop-color="rgb(49.713135%, 92.256165%, 74.555969%)" offset="0.332031"/><stop stop-opacity="1" stop-color="rgb(49.90387%, 92.312622%, 74.337769%)" offset="0.335938"/><stop stop-opacity="1" stop-color="rgb(50.094604%, 92.36908%, 74.118042%)" offset="0.339844"/><stop stop-opacity="1" stop-color="rgb(50.285339%, 92.427063%, 73.899841%)" offset="0.34375"/><stop stop-opacity="1" stop-color="rgb(50.476074%, 92.483521%, 73.680115%)" offset="0.347656"/><stop stop-opacity="1" stop-color="rgb(50.666809%, 92.539978%, 73.461914%)" offset="0.351562"/><stop stop-opacity="1" stop-color="rgb(50.857544%, 92.596436%, 73.242188%)" offset="0.355469"/><stop stop-opacity="1" stop-color="rgb(51.048279%, 92.652893%, 73.023987%)" offset="0.359375"/><stop stop-opacity="1" stop-color="rgb(51.237488%, 92.709351%, 72.80426%)" offset="0.363281"/><stop stop-opacity="1" stop-color="rgb(51.428223%, 92.767334%, 72.58606%)" offset="0.367188"/><stop stop-opacity="1" stop-color="rgb(51.618958%, 92.823792%, 72.366333%)" offset="0.371094"/><stop stop-opacity="1" stop-color="rgb(51.809692%, 92.880249%, 72.148132%)" offset="0.375"/><stop stop-opacity="1" stop-color="rgb(52.000427%, 92.936707%, 71.928406%)" offset="0.378906"/><stop stop-opacity="1" stop-color="rgb(52.191162%, 92.99469%, 71.710205%)" offset="0.382812"/><stop stop-opacity="1" stop-color="rgb(52.381897%, 93.051147%, 71.490479%)" offset="0.386719"/><stop stop-opacity="1" stop-color="rgb(52.572632%, 93.107605%, 71.272278%)" offset="0.390625"/><stop stop-opacity="1" stop-color="rgb(52.761841%, 93.164062%, 71.052551%)" offset="0.394531"/><stop stop-opacity="1" stop-color="rgb(52.952576%, 93.222046%, 70.834351%)" offset="0.398438"/><stop stop-opacity="1" stop-color="rgb(53.143311%, 93.278503%, 70.614624%)" offset="0.402344"/><stop stop-opacity="1" stop-color="rgb(53.334045%, 93.334961%, 70.396423%)" offset="0.40625"/><stop stop-opacity="1" stop-color="rgb(53.52478%, 93.391418%, 70.176697%)" offset="0.410156"/><stop stop-opacity="1" stop-color="rgb(53.715515%, 93.447876%, 69.958496%)" offset="0.414063"/><stop stop-opacity="1" stop-color="rgb(53.904724%, 93.504333%, 69.73877%)" offset="0.417969"/><stop stop-opacity="1" stop-color="rgb(54.095459%, 93.562317%, 69.520569%)" offset="0.421875"/><stop stop-opacity="1" stop-color="rgb(54.286194%, 93.618774%, 69.300842%)" offset="0.425781"/><stop stop-opacity="1" stop-color="rgb(54.476929%, 93.675232%, 69.082642%)" offset="0.429688"/><stop stop-opacity="1" stop-color="rgb(54.667664%, 93.731689%, 68.862915%)" offset="0.433594"/><stop stop-opacity="1" stop-color="rgb(54.858398%, 93.789673%, 68.644714%)" offset="0.4375"/><stop stop-opacity="1" stop-color="rgb(55.049133%, 93.84613%, 68.424988%)" offset="0.441406"/><stop stop-opacity="1" stop-color="rgb(55.239868%, 93.902588%, 68.206787%)" offset="0.445312"/><stop stop-opacity="1" stop-color="rgb(55.429077%, 93.959045%, 67.988586%)" offset="0.449219"/><stop stop-opacity="1" stop-color="rgb(55.619812%, 94.015503%, 67.770386%)" offset="0.453125"/><stop stop-opacity="1" stop-color="rgb(55.810547%, 94.07196%, 67.550659%)" offset="0.457031"/><stop stop-opacity="1" stop-color="rgb(56.001282%, 94.129944%, 67.332458%)" offset="0.460938"/><stop stop-opacity="1" stop-color="rgb(56.192017%, 94.186401%, 67.112732%)" offset="0.464844"/><stop stop-opacity="1" stop-color="rgb(56.382751%, 94.242859%, 66.894531%)" offset="0.46875"/><stop stop-opacity="1" stop-color="rgb(56.573486%, 94.299316%, 66.674805%)" offset="0.472656"/><stop stop-opacity="1" stop-color="rgb(56.764221%, 94.3573%, 66.456604%)" offset="0.476562"/><stop stop-opacity="1" stop-color="rgb(56.95343%, 94.413757%, 66.236877%)" offset="0.480469"/><stop stop-opacity="1" stop-color="rgb(57.144165%, 94.470215%, 66.018677%)" offset="0.484375"/><stop stop-opacity="1" stop-color="rgb(57.3349%, 94.526672%, 65.79895%)" offset="0.488281"/><stop stop-opacity="1" stop-color="rgb(57.525635%, 94.58313%, 65.58075%)" offset="0.492188"/><stop stop-opacity="1" stop-color="rgb(57.71637%, 94.639587%, 65.361023%)" offset="0.496094"/><stop stop-opacity="1" stop-color="rgb(57.907104%, 94.697571%, 65.142822%)" offset="0.5"/><stop stop-opacity="1" stop-color="rgb(58.096313%, 94.754028%, 64.923096%)" offset="0.503906"/><stop stop-opacity="1" stop-color="rgb(58.287048%, 94.810486%, 64.704895%)" offset="0.507812"/><stop stop-opacity="1" stop-color="rgb(58.477783%, 94.866943%, 64.485168%)" offset="0.511719"/><stop stop-opacity="1" stop-color="rgb(58.668518%, 94.924927%, 64.266968%)" offset="0.515625"/><stop stop-opacity="1" stop-color="rgb(58.859253%, 94.981384%, 64.047241%)" offset="0.519531"/><stop stop-opacity="1" stop-color="rgb(59.049988%, 95.037842%, 63.829041%)" offset="0.523437"/><stop stop-opacity="1" stop-color="rgb(59.240723%, 95.094299%, 63.609314%)" offset="0.527344"/><stop stop-opacity="1" stop-color="rgb(59.431458%, 95.152283%, 63.391113%)" offset="0.53125"/><stop stop-opacity="1" stop-color="rgb(59.620667%, 95.20874%, 63.171387%)" offset="0.535156"/><stop stop-opacity="1" stop-color="rgb(59.811401%, 95.265198%, 62.953186%)" offset="0.539062"/><stop stop-opacity="1" stop-color="rgb(60.002136%, 95.321655%, 62.733459%)" offset="0.542969"/><stop stop-opacity="1" stop-color="rgb(60.192871%, 95.378113%, 62.515259%)" offset="0.546875"/><stop stop-opacity="1" stop-color="rgb(60.383606%, 95.43457%, 62.295532%)" offset="0.550781"/><stop stop-opacity="1" stop-color="rgb(60.574341%, 95.492554%, 62.077332%)" offset="0.554687"/><stop stop-opacity="1" stop-color="rgb(60.765076%, 95.549011%, 61.857605%)" offset="0.558594"/><stop stop-opacity="1" stop-color="rgb(60.955811%, 95.605469%, 61.639404%)" offset="0.5625"/><stop stop-opacity="1" stop-color="rgb(61.14502%, 95.661926%, 61.419678%)" offset="0.566406"/><stop stop-opacity="1" stop-color="rgb(61.335754%, 95.71991%, 61.201477%)" offset="0.570312"/><stop stop-opacity="1" stop-color="rgb(61.526489%, 95.776367%, 60.98175%)" offset="0.574219"/><stop stop-opacity="1" stop-color="rgb(61.717224%, 95.832825%, 60.76355%)" offset="0.578125"/><stop stop-opacity="1" stop-color="rgb(61.907959%, 95.889282%, 60.545349%)" offset="0.582031"/><stop stop-opacity="1" stop-color="rgb(62.098694%, 95.94574%, 60.327148%)" offset="0.585938"/><stop stop-opacity="1" stop-color="rgb(62.289429%, 96.002197%, 60.107422%)" offset="0.589844"/><stop stop-opacity="1" stop-color="rgb(62.480164%, 96.060181%, 59.889221%)" offset="0.59375"/><stop stop-opacity="1" stop-color="rgb(62.669373%, 96.116638%, 59.669495%)" offset="0.597656"/><stop stop-opacity="1" stop-color="rgb(62.860107%, 96.173096%, 59.451294%)" offset="0.601562"/><stop stop-opacity="1" stop-color="rgb(63.050842%, 96.229553%, 59.231567%)" offset="0.605469"/><stop stop-opacity="1" stop-color="rgb(63.241577%, 96.287537%, 59.013367%)" offset="0.609375"/><stop stop-opacity="1" stop-color="rgb(63.432312%, 96.343994%, 58.79364%)" offset="0.613281"/><stop stop-opacity="1" stop-color="rgb(63.623047%, 96.400452%, 58.575439%)" offset="0.617188"/><stop stop-opacity="1" stop-color="rgb(63.812256%, 96.456909%, 58.355713%)" offset="0.621094"/><stop stop-opacity="1" stop-color="rgb(64.002991%, 96.514893%, 58.137512%)" offset="0.625"/><stop stop-opacity="1" stop-color="rgb(64.193726%, 96.57135%, 57.917786%)" offset="0.628906"/><stop stop-opacity="1" stop-color="rgb(64.38446%, 96.627808%, 57.699585%)" offset="0.632812"/><stop stop-opacity="1" stop-color="rgb(64.575195%, 96.684265%, 57.479858%)" offset="0.636719"/><stop stop-opacity="1" stop-color="rgb(64.76593%, 96.740723%, 57.261658%)" offset="0.640625"/><stop stop-opacity="1" stop-color="rgb(64.956665%, 96.79718%, 57.041931%)" offset="0.644531"/><stop stop-opacity="1" stop-color="rgb(65.1474%, 96.855164%, 56.82373%)" offset="0.648438"/><stop stop-opacity="1" stop-color="rgb(65.336609%, 96.911621%, 56.604004%)" offset="0.652344"/><stop stop-opacity="1" stop-color="rgb(65.527344%, 96.968079%, 56.385803%)" offset="0.65625"/><stop stop-opacity="1" stop-color="rgb(65.718079%, 97.024536%, 56.166077%)" offset="0.660156"/><stop stop-opacity="1" stop-color="rgb(65.908813%, 97.08252%, 55.947876%)" offset="0.664062"/><stop stop-opacity="1" stop-color="rgb(66.099548%, 97.138977%, 55.728149%)" offset="0.667969"/><stop stop-opacity="1" stop-color="rgb(66.290283%, 97.195435%, 55.509949%)" offset="0.671875"/><stop stop-opacity="1" stop-color="rgb(66.481018%, 97.251892%, 55.290222%)" offset="0.675781"/><stop stop-opacity="1" stop-color="rgb(66.671753%, 97.30835%, 55.072021%)" offset="0.679688"/><stop stop-opacity="1" stop-color="rgb(66.860962%, 97.364807%, 54.852295%)" offset="0.683594"/><stop stop-opacity="1" stop-color="rgb(67.051697%, 97.422791%, 54.634094%)" offset="0.6875"/><stop stop-opacity="1" stop-color="rgb(67.242432%, 97.479248%, 54.414368%)" offset="0.691406"/><stop stop-opacity="1" stop-color="rgb(67.433167%, 97.535706%, 54.196167%)" offset="0.695312"/><stop stop-opacity="1" stop-color="rgb(67.623901%, 97.592163%, 53.97644%)" offset="0.699219"/><stop stop-opacity="1" stop-color="rgb(67.814636%, 97.650146%, 53.75824%)" offset="0.703125"/><stop stop-opacity="1" stop-color="rgb(68.003845%, 97.706604%, 53.540039%)" offset="0.707031"/><stop stop-opacity="1" stop-color="rgb(68.19458%, 97.763062%, 53.321838%)" offset="0.710938"/><stop stop-opacity="1" stop-color="rgb(68.385315%, 97.819519%, 53.102112%)" offset="0.714844"/><stop stop-opacity="1" stop-color="rgb(68.57605%, 97.877502%, 52.883911%)" offset="0.71875"/><stop stop-opacity="1" stop-color="rgb(68.766785%, 97.93396%, 52.664185%)" offset="0.722656"/><stop stop-opacity="1" stop-color="rgb(68.95752%, 97.990417%, 52.445984%)" offset="0.726562"/><stop stop-opacity="1" stop-color="rgb(69.148254%, 98.046875%, 52.226257%)" offset="0.730469"/><stop stop-opacity="1" stop-color="rgb(69.338989%, 98.103333%, 52.008057%)" offset="0.734375"/><stop stop-opacity="1" stop-color="rgb(69.528198%, 98.15979%, 51.78833%)" offset="0.738281"/><stop stop-opacity="1" stop-color="rgb(69.718933%, 98.217773%, 51.570129%)" offset="0.742188"/><stop stop-opacity="1" stop-color="rgb(69.909668%, 98.274231%, 51.350403%)" offset="0.746094"/><stop stop-opacity="1" stop-color="rgb(70.100403%, 98.330688%, 51.132202%)" offset="0.75"/><stop stop-opacity="1" stop-color="rgb(70.291138%, 98.387146%, 50.912476%)" offset="0.753906"/><stop stop-opacity="1" stop-color="rgb(70.481873%, 98.445129%, 50.694275%)" offset="0.757812"/><stop stop-opacity="1" stop-color="rgb(70.672607%, 98.501587%, 50.474548%)" offset="0.761719"/><stop stop-opacity="1" stop-color="rgb(70.863342%, 98.558044%, 50.256348%)" offset="0.765625"/><stop stop-opacity="1" stop-color="rgb(71.052551%, 98.614502%, 50.036621%)" offset="0.769531"/><stop stop-opacity="1" stop-color="rgb(71.243286%, 98.670959%, 49.81842%)" offset="0.773438"/><stop stop-opacity="1" stop-color="rgb(71.434021%, 98.727417%, 49.598694%)" offset="0.777344"/><stop stop-opacity="1" stop-color="rgb(71.624756%, 98.7854%, 49.380493%)" offset="0.78125"/><stop stop-opacity="1" stop-color="rgb(71.815491%, 98.841858%, 49.160767%)" offset="0.785156"/><stop stop-opacity="1" stop-color="rgb(72.006226%, 98.898315%, 48.942566%)" offset="0.789063"/><stop stop-opacity="1" stop-color="rgb(72.19696%, 98.954773%, 48.722839%)" offset="0.792969"/><stop stop-opacity="1" stop-color="rgb(72.387695%, 99.012756%, 48.504639%)" offset="0.796875"/><stop stop-opacity="1" stop-color="rgb(72.576904%, 99.069214%, 48.284912%)" offset="0.800781"/><stop stop-opacity="1" stop-color="rgb(72.767639%, 99.125671%, 48.066711%)" offset="0.804688"/><stop stop-opacity="1" stop-color="rgb(72.958374%, 99.182129%, 47.846985%)" offset="0.808594"/><stop stop-opacity="1" stop-color="rgb(73.149109%, 99.238586%, 47.628784%)" offset="0.8125"/><stop stop-opacity="1" stop-color="rgb(73.339844%, 99.295044%, 47.409058%)" offset="0.816406"/><stop stop-opacity="1" stop-color="rgb(73.530579%, 99.353027%, 47.190857%)" offset="0.820312"/><stop stop-opacity="1" stop-color="rgb(73.719788%, 99.409485%, 46.97113%)" offset="0.824219"/><stop stop-opacity="1" stop-color="rgb(73.910522%, 99.465942%, 46.75293%)" offset="0.828125"/><stop stop-opacity="1" stop-color="rgb(74.101257%, 99.5224%, 46.534729%)" offset="0.832031"/><stop stop-opacity="1" stop-color="rgb(74.291992%, 99.580383%, 46.316528%)" offset="0.835937"/><stop stop-opacity="1" stop-color="rgb(74.482727%, 99.636841%, 46.096802%)" offset="0.839844"/><stop stop-opacity="1" stop-color="rgb(74.673462%, 99.693298%, 45.878601%)" offset="0.84375"/><stop stop-opacity="1" stop-color="rgb(74.864197%, 99.749756%, 45.658875%)" offset="0.847656"/><stop stop-opacity="1" stop-color="rgb(75.054932%, 99.807739%, 45.440674%)" offset="0.851562"/><stop stop-opacity="1" stop-color="rgb(75.244141%, 99.864197%, 45.220947%)" offset="0.855469"/><stop stop-opacity="1" stop-color="rgb(75.434875%, 99.920654%, 45.002747%)" offset="0.859375"/><stop stop-opacity="1" stop-color="rgb(75.566101%, 99.960327%, 44.850159%)" offset="0.875"/><stop stop-opacity="1" stop-color="rgb(75.698853%, 100%, 44.699097%)" offset="0.886014"/><stop stop-opacity="1" stop-color="rgb(75.698853%, 100%, 44.699097%)" offset="1"/></linearGradient></defs><g clip-path="url(#d6a8e1ea9d)"><g clip-path="url(#32890b0b2c)"><path fill="url(#100c41104f)" d="M 125.175781 62.804688 L 125.175781 205.304688 L 249.585938 205.304688 L 249.585938 62.804688 Z M 125.175781 62.804688 " fill-rule="nonzero"/></g></g><path fill="#c1ff72" d="M 157.058594 178.125 C 154.203125 164.539062 158.148438 153.125 168.871094 143.867188 C 168.457031 138.449219 167.003906 131.964844 164.5625 124.445312 C 168.378906 130.875 170.871094 136.503906 172.039062 141.328125 C 176.011719 138.398438 180.738281 135.699219 186.214844 133.238281 C 185.097656 130.074219 182.683594 125.820312 178.996094 120.398438 C 177.050781 117.289062 175.414062 114.304688 174.167969 111.453125 C 172.351562 107.175781 172.402344 102.945312 174.324219 98.746094 C 155.113281 104.398438 141.066406 122.136719 141.066406 143.167969 C 141.066406 157.121094 147.246094 169.644531 157.03125 178.125 Z M 157.058594 178.125 " fill-opacity="1" fill-rule="evenodd"/><path fill="#5ce1e6" d="M 171.15625 152.917969 C 164.070312 161.398438 162.589844 171.148438 166.769531 182.222656 C 171.390625 168.039062 188.550781 156.367188 218.199219 147.214844 C 196.960938 157.40625 182.242188 170.839844 174.0625 187.511719 C 178.296875 188.785156 182.789062 189.457031 187.410156 189.457031 C 213.007812 189.457031 233.75 168.738281 233.75 143.167969 C 233.75 136.246094 232.21875 129.683594 229.492188 123.769531 C 228.453125 128.621094 222.507812 132.148438 211.683594 134.378906 C 195.015625 136.867188 181.515625 143.039062 171.128906 152.917969 Z M 171.15625 152.917969 " fill-opacity="1" fill-rule="evenodd"/><g fill="#545454" fill-opacity="1"><g transform="translate(30.619933, 262.794302)"><g><path d="M 3.859375 -38.671875 L 12.15625 -38.671875 L 12.15625 -7.453125 L 29.828125 -7.453125 L 29.828125 0 L 3.859375 0 Z M 3.859375 -38.671875 "/></g></g></g><g fill="#545454" fill-opacity="1"><g transform="translate(60.447625, 262.794302)"><g><path d="M 11.875 0.546875 C 10.289062 0.546875 8.863281 0.316406 7.59375 -0.140625 C 6.320312 -0.597656 5.242188 -1.234375 4.359375 -2.046875 C 3.472656 -2.859375 2.800781 -3.816406 2.34375 -4.921875 C 1.882812 -6.023438 1.65625 -7.238281 1.65625 -8.5625 C 1.65625 -9.882812 1.894531 -11.097656 2.375 -12.203125 C 2.851562 -13.304688 3.570312 -14.265625 4.53125 -15.078125 C 5.488281 -15.890625 6.664062 -16.523438 8.0625 -16.984375 C 9.457031 -17.441406 11.097656 -17.671875 12.984375 -17.671875 L 19.890625 -17.671875 L 19.890625 -19.0625 C 19.890625 -20.457031 19.445312 -21.492188 18.5625 -22.171875 C 17.675781 -22.859375 16.457031 -23.203125 14.90625 -23.203125 C 13.800781 -23.203125 12.863281 -22.960938 12.09375 -22.484375 C 11.320312 -22.003906 10.789062 -21.414062 10.5 -20.71875 L 2.765625 -20.71875 C 3.015625 -21.894531 3.460938 -23.023438 4.109375 -24.109375 C 4.753906 -25.191406 5.582031 -26.15625 6.59375 -27 C 7.613281 -27.851562 8.832031 -28.535156 10.25 -29.046875 C 11.664062 -29.566406 13.3125 -29.828125 15.1875 -29.828125 C 19.09375 -29.828125 22.140625 -28.882812 24.328125 -27 C 26.523438 -25.125 27.625 -22.382812 27.625 -18.78125 L 27.625 0 L 20.984375 0 L 20.15625 -3.3125 L 19.890625 -3.3125 C 19.585938 -2.90625 19.210938 -2.472656 18.765625 -2.015625 C 18.328125 -1.554688 17.773438 -1.132812 17.109375 -0.75 C 16.453125 -0.363281 15.691406 -0.0507812 14.828125 0.1875 C 13.960938 0.425781 12.976562 0.546875 11.875 0.546875 Z M 13.8125 -5.796875 C 15.613281 -5.796875 17.078125 -6.300781 18.203125 -7.3125 C 19.328125 -8.332031 19.890625 -9.671875 19.890625 -11.328125 L 19.890625 -12.15625 L 13.25 -12.15625 C 11.851562 -12.15625 10.859375 -11.859375 10.265625 -11.265625 C 9.679688 -10.679688 9.390625 -9.960938 9.390625 -9.109375 C 9.390625 -8.148438 9.738281 -7.359375 10.4375 -6.734375 C 11.132812 -6.109375 12.257812 -5.796875 13.8125 -5.796875 Z M 13.8125 -5.796875 "/></g></g></g><g fill="#545454" fill-opacity="1"><g transform="translate(89.99913, 262.794302)"><g><path d="M 19.609375 0.546875 C 17.546875 0.546875 15.847656 0.144531 14.515625 -0.65625 C 13.191406 -1.46875 12.128906 -2.351562 11.328125 -3.3125 L 11.046875 -3.3125 L 10.21875 0 L 3.59375 0 L 3.59375 -38.671875 L 11.328125 -38.671875 L 11.328125 -26.234375 L 11.59375 -26.234375 C 11.851562 -26.566406 12.210938 -26.941406 12.671875 -27.359375 C 13.128906 -27.785156 13.691406 -28.179688 14.359375 -28.546875 C 15.023438 -28.921875 15.789062 -29.226562 16.65625 -29.46875 C 17.519531 -29.707031 18.503906 -29.828125 19.609375 -29.828125 C 21.484375 -29.828125 23.191406 -29.503906 24.734375 -28.859375 C 26.285156 -28.210938 27.625 -27.242188 28.75 -25.953125 C 29.875 -24.671875 30.75 -23.082031 31.375 -21.1875 C 32 -19.289062 32.3125 -17.109375 32.3125 -14.640625 C 32.3125 -12.128906 32 -9.9375 31.375 -8.0625 C 30.75 -6.1875 29.875 -4.601562 28.75 -3.3125 C 27.625 -2.019531 26.285156 -1.050781 24.734375 -0.40625 C 23.191406 0.226562 21.484375 0.546875 19.609375 0.546875 Z M 17.953125 -6.359375 C 18.835938 -6.359375 19.679688 -6.515625 20.484375 -6.828125 C 21.296875 -7.140625 22.003906 -7.632812 22.609375 -8.3125 C 23.222656 -8.988281 23.703125 -9.851562 24.046875 -10.90625 C 24.398438 -11.957031 24.578125 -13.203125 24.578125 -14.640625 C 24.578125 -16.078125 24.398438 -17.316406 24.046875 -18.359375 C 23.703125 -19.410156 23.222656 -20.273438 22.609375 -20.953125 C 22.003906 -21.640625 21.296875 -22.140625 20.484375 -22.453125 C 19.679688 -22.765625 18.835938 -22.921875 17.953125 -22.921875 C 17.066406 -22.921875 16.21875 -22.765625 15.40625 -22.453125 C 14.59375 -22.140625 13.882812 -21.640625 13.28125 -20.953125 C 12.675781 -20.273438 12.195312 -19.410156 11.84375 -18.359375 C 11.5 -17.316406 11.328125 -16.078125 11.328125 -14.640625 C 11.328125 -13.203125 11.5 -11.957031 11.84375 -10.90625 C 12.195312 -9.851562 12.675781 -8.988281 13.28125 -8.3125 C 13.882812 -7.632812 14.59375 -7.140625 15.40625 -6.828125 C 16.21875 -6.515625 17.066406 -6.359375 17.953125 -6.359375 Z M 17.953125 -6.359375 "/></g></g></g><g fill="#7ed957" fill-opacity="1"><g transform="translate(123.151097, 262.794302)"><g><path d="M 12.421875 -31.203125 L 0.828125 -31.203125 L 0.828125 -38.671875 L 32.3125 -38.671875 L 32.3125 -31.203125 L 20.71875 -31.203125 L 20.71875 0 L 12.421875 0 Z M 12.421875 -31.203125 "/></g></g></g><g fill="#7ed957" fill-opacity="1"><g transform="translate(155.188246, 262.794302)"><g><path d="M 3.3125 -29.28125 L 9.9375 -29.28125 L 10.765625 -25.953125 L 11.046875 -25.953125 C 11.890625 -27.210938 12.898438 -28.082031 14.078125 -28.5625 C 15.265625 -29.039062 16.554688 -29.28125 17.953125 -29.28125 L 21.546875 -29.28125 L 21.546875 -21.8125 L 18.5 -21.8125 C 16.144531 -21.8125 14.3125 -21.164062 13 -19.875 C 11.695312 -18.59375 11.046875 -16.847656 11.046875 -14.640625 L 11.046875 0 L 3.3125 0 Z M 3.3125 -29.28125 "/></g></g></g><g fill="#7ed957" fill-opacity="1"><g transform="translate(176.454257, 262.794302)"><g><path d="M 11.875 0.546875 C 10.289062 0.546875 8.863281 0.316406 7.59375 -0.140625 C 6.320312 -0.597656 5.242188 -1.234375 4.359375 -2.046875 C 3.472656 -2.859375 2.800781 -3.816406 2.34375 -4.921875 C 1.882812 -6.023438 1.65625 -7.238281 1.65625 -8.5625 C 1.65625 -9.882812 1.894531 -11.097656 2.375 -12.203125 C 2.851562 -13.304688 3.570312 -14.265625 4.53125 -15.078125 C 5.488281 -15.890625 6.664062 -16.523438 8.0625 -16.984375 C 9.457031 -17.441406 11.097656 -17.671875 12.984375 -17.671875 L 19.890625 -17.671875 L 19.890625 -19.0625 C 19.890625 -20.457031 19.445312 -21.492188 18.5625 -22.171875 C 17.675781 -22.859375 16.457031 -23.203125 14.90625 -23.203125 C 13.800781 -23.203125 12.863281 -22.960938 12.09375 -22.484375 C 11.320312 -22.003906 10.789062 -21.414062 10.5 -20.71875 L 2.765625 -20.71875 C 3.015625 -21.894531 3.460938 -23.023438 4.109375 -24.109375 C 4.753906 -25.191406 5.582031 -26.15625 6.59375 -27 C 7.613281 -27.851562 8.832031 -28.535156 10.25 -29.046875 C 11.664062 -29.566406 13.3125 -29.828125 15.1875 -29.828125 C 19.09375 -29.828125 22.140625 -28.882812 24.328125 -27 C 26.523438 -25.125 27.625 -22.382812 27.625 -18.78125 L 27.625 0 L 20.984375 0 L 20.15625 -3.3125 L 19.890625 -3.3125 C 19.585938 -2.90625 19.210938 -2.472656 18.765625 -2.015625 C 18.328125 -1.554688 17.773438 -1.132812 17.109375 -0.75 C 16.453125 -0.363281 15.691406 -0.0507812 14.828125 0.1875 C 13.960938 0.425781 12.976562 0.546875 11.875 0.546875 Z M 13.8125 -5.796875 C 15.613281 -5.796875 17.078125 -6.300781 18.203125 -7.3125 C 19.328125 -8.332031 19.890625 -9.671875 19.890625 -11.328125 L 19.890625 -12.15625 L 13.25 -12.15625 C 11.851562 -12.15625 10.859375 -11.859375 10.265625 -11.265625 C 9.679688 -10.679688 9.390625 -9.960938 9.390625 -9.109375 C 9.390625 -8.148438 9.738281 -7.359375 10.4375 -6.734375 C 11.132812 -6.109375 12.257812 -5.796875 13.8125 -5.796875 Z M 13.8125 -5.796875 "/></g></g></g><g fill="#7ed957" fill-opacity="1"><g transform="translate(206.005762, 262.794302)"><g><path d="M 16.296875 0.546875 C 14.085938 0.546875 12.097656 0.207031 10.328125 -0.46875 C 8.554688 -1.144531 7.046875 -2.128906 5.796875 -3.421875 C 4.546875 -4.710938 3.585938 -6.296875 2.921875 -8.171875 C 2.265625 -10.046875 1.9375 -12.203125 1.9375 -14.640625 C 1.9375 -17.066406 2.265625 -19.21875 2.921875 -21.09375 C 3.585938 -22.976562 4.546875 -24.5625 5.796875 -25.84375 C 7.046875 -27.132812 8.554688 -28.117188 10.328125 -28.796875 C 12.097656 -29.484375 14.085938 -29.828125 16.296875 -29.828125 C 18.359375 -29.828125 20.160156 -29.539062 21.703125 -28.96875 C 23.253906 -28.394531 24.570312 -27.617188 25.65625 -26.640625 C 26.738281 -25.671875 27.617188 -24.550781 28.296875 -23.28125 C 28.984375 -22.007812 29.492188 -20.691406 29.828125 -19.328125 L 22.09375 -19.328125 C 21.539062 -20.429688 20.820312 -21.304688 19.9375 -21.953125 C 19.050781 -22.597656 17.835938 -22.921875 16.296875 -22.921875 C 14.335938 -22.921875 12.742188 -22.226562 11.515625 -20.84375 C 10.285156 -19.46875 9.671875 -17.398438 9.671875 -14.640625 C 9.671875 -11.878906 10.285156 -9.804688 11.515625 -8.421875 C 12.742188 -7.046875 14.335938 -6.359375 16.296875 -6.359375 C 17.835938 -6.359375 19.050781 -6.675781 19.9375 -7.3125 C 20.820312 -7.957031 21.539062 -8.832031 22.09375 -9.9375 L 29.828125 -9.9375 C 29.492188 -8.539062 28.984375 -7.21875 28.296875 -5.96875 C 27.617188 -4.71875 26.738281 -3.601562 25.65625 -2.625 C 24.570312 -1.644531 23.253906 -0.867188 21.703125 -0.296875 C 20.160156 0.265625 18.359375 0.546875 16.296875 0.546875 Z M 16.296875 0.546875 "/></g></g></g><g fill="#7ed957" fill-opacity="1"><g transform="translate(236.385815, 262.794302)"><g><path d="M 3.59375 -38.671875 L 11.328125 -38.671875 L 11.328125 -16.296875 L 22.09375 -29.28125 L 31.203125 -29.28125 L 19.328125 -14.90625 L 32.03125 0 L 22.921875 0 L 11.328125 -13.53125 L 11.328125 0 L 3.59375 0 Z M 3.59375 -38.671875 "/></g></g></g><g fill="#7ed957" fill-opacity="1"><g transform="translate(266.213512, 262.794302)"><g><path d="M 3.3125 -29.28125 L 11.046875 -29.28125 L 11.046875 0 L 3.3125 0 Z M 7.1875 -32.3125 C 5.925781 -32.3125 4.875 -32.734375 4.03125 -33.578125 C 3.1875 -34.429688 2.765625 -35.484375 2.765625 -36.734375 C 2.765625 -37.984375 3.1875 -39.03125 4.03125 -39.875 C 4.875 -40.726562 5.925781 -41.15625 7.1875 -41.15625 C 8.4375 -41.15625 9.484375 -40.726562 10.328125 -39.875 C 11.171875 -39.03125 11.59375 -37.984375 11.59375 -36.734375 C 11.59375 -35.484375 11.171875 -34.429688 10.328125 -33.578125 C 9.484375 -32.734375 8.4375 -32.3125 7.1875 -32.3125 Z M 7.1875 -32.3125 "/></g></g></g><g fill="#7ed957" fill-opacity="1"><g transform="translate(279.47021, 262.794302)"><g><path d="M 3.3125 -29.28125 L 9.9375 -29.28125 L 10.765625 -25.953125 L 11.046875 -25.953125 C 12.003906 -27.210938 13.144531 -28.171875 14.46875 -28.828125 C 15.789062 -29.492188 17.226562 -29.828125 18.78125 -29.828125 C 20.363281 -29.828125 21.816406 -29.554688 23.140625 -29.015625 C 24.460938 -28.484375 25.59375 -27.703125 26.53125 -26.671875 C 27.476562 -25.640625 28.21875 -24.394531 28.75 -22.9375 C 29.28125 -21.488281 29.546875 -19.828125 29.546875 -17.953125 L 29.546875 0 L 21.8125 0 L 21.8125 -16.84375 C 21.8125 -18.800781 21.351562 -20.300781 20.4375 -21.34375 C 19.519531 -22.394531 18.234375 -22.921875 16.578125 -22.921875 C 14.910156 -22.921875 13.570312 -22.359375 12.5625 -21.234375 C 11.550781 -20.109375 11.046875 -18.644531 11.046875 -16.84375 L 11.046875 0 L 3.3125 0 Z M 3.3125 -29.28125 "/></g></g></g><g fill="#7ed957" fill-opacity="1"><g transform="translate(310.954992, 262.794302)"><g><path d="M 16.296875 11.046875 C 14.085938 11.046875 12.191406 10.785156 10.609375 10.265625 C 9.023438 9.753906 7.6875 9.046875 6.59375 8.140625 C 5.507812 7.242188 4.632812 6.195312 3.96875 5 C 3.3125 3.800781 2.816406 2.503906 2.484375 1.109375 L 10.5 1.109375 C 10.789062 2.066406 11.441406 2.8125 12.453125 3.34375 C 13.460938 3.875 14.742188 4.140625 16.296875 4.140625 C 18.242188 4.140625 19.742188 3.675781 20.796875 2.75 C 21.847656 1.832031 22.375 0.546875 22.375 -1.109375 L 22.375 -5.25 L 22.09375 -5.25 C 21.800781 -4.914062 21.421875 -4.535156 20.953125 -4.109375 C 20.492188 -3.691406 19.929688 -3.296875 19.265625 -2.921875 C 18.609375 -2.554688 17.863281 -2.253906 17.03125 -2.015625 C 16.207031 -1.773438 15.316406 -1.65625 14.359375 -1.65625 C 12.484375 -1.65625 10.78125 -1.957031 9.25 -2.5625 C 7.71875 -3.175781 6.410156 -4.078125 5.328125 -5.265625 C 4.242188 -6.460938 3.40625 -7.9375 2.8125 -9.6875 C 2.226562 -11.4375 1.9375 -13.453125 1.9375 -15.734375 C 1.9375 -18.023438 2.226562 -20.039062 2.8125 -21.78125 C 3.40625 -23.53125 4.242188 -25.003906 5.328125 -26.203125 C 6.410156 -27.398438 7.71875 -28.300781 9.25 -28.90625 C 10.78125 -29.519531 12.484375 -29.828125 14.359375 -29.828125 C 16.160156 -29.828125 17.734375 -29.421875 19.078125 -28.609375 C 20.421875 -27.796875 21.519531 -26.910156 22.375 -25.953125 L 22.640625 -25.953125 L 23.46875 -29.28125 L 30.109375 -29.28125 L 30.109375 -1.109375 C 30.109375 2.796875 28.984375 5.796875 26.734375 7.890625 C 24.484375 9.992188 21.003906 11.046875 16.296875 11.046875 Z M 16.015625 -8.5625 C 17.972656 -8.5625 19.519531 -9.203125 20.65625 -10.484375 C 21.800781 -11.773438 22.375 -13.523438 22.375 -15.734375 C 22.375 -17.953125 21.800781 -19.703125 20.65625 -20.984375 C 19.519531 -22.273438 17.972656 -22.921875 16.015625 -22.921875 C 14.066406 -22.921875 12.519531 -22.273438 11.375 -20.984375 C 10.238281 -19.703125 9.671875 -17.953125 9.671875 -15.734375 C 9.671875 -13.523438 10.238281 -11.773438 11.375 -10.484375 C 12.519531 -9.203125 14.066406 -8.5625 16.015625 -8.5625 Z M 16.015625 -8.5625 "/></g></g></g><g fill="#737373" fill-opacity="1"><g transform="translate(89.260404, 307.638877)"><g><path d="M 5.859375 0.1875 C 5.128906 0.1875 4.445312 0.0976562 3.8125 -0.078125 C 3.1875 -0.253906 2.632812 -0.515625 2.15625 -0.859375 C 1.6875 -1.203125 1.304688 -1.632812 1.015625 -2.15625 C 0.734375 -2.6875 0.550781 -3.289062 0.46875 -3.96875 L 3.3125 -3.96875 C 3.414062 -3.4375 3.6875 -3.019531 4.125 -2.71875 C 4.5625 -2.414062 5.140625 -2.265625 5.859375 -2.265625 C 6.753906 -2.265625 7.390625 -2.410156 7.765625 -2.703125 C 8.140625 -3.003906 8.328125 -3.394531 8.328125 -3.875 C 8.328125 -4.207031 8.21875 -4.46875 8 -4.65625 C 7.789062 -4.851562 7.515625 -5.007812 7.171875 -5.125 C 6.828125 -5.25 6.4375 -5.351562 6 -5.4375 C 5.5625 -5.519531 5.109375 -5.613281 4.640625 -5.71875 C 4.171875 -5.832031 3.710938 -5.96875 3.265625 -6.125 C 2.828125 -6.289062 2.4375 -6.515625 2.09375 -6.796875 C 1.757812 -7.085938 1.484375 -7.453125 1.265625 -7.890625 C 1.054688 -8.328125 0.953125 -8.882812 0.953125 -9.5625 C 0.953125 -10.195312 1.078125 -10.753906 1.328125 -11.234375 C 1.578125 -11.710938 1.925781 -12.113281 2.375 -12.4375 C 2.820312 -12.769531 3.34375 -13.019531 3.9375 -13.1875 C 4.539062 -13.351562 5.179688 -13.4375 5.859375 -13.4375 C 6.671875 -13.4375 7.378906 -13.335938 7.984375 -13.140625 C 8.585938 -12.941406 9.097656 -12.664062 9.515625 -12.3125 C 9.929688 -11.957031 10.257812 -11.546875 10.5 -11.078125 C 10.738281 -10.609375 10.894531 -10.101562 10.96875 -9.5625 L 8.140625 -9.5625 C 8.035156 -9.988281 7.800781 -10.328125 7.4375 -10.578125 C 7.070312 -10.835938 6.578125 -10.96875 5.953125 -10.96875 C 5.234375 -10.96875 4.707031 -10.828125 4.375 -10.546875 C 4.039062 -10.265625 3.875 -9.9375 3.875 -9.5625 C 3.875 -9.21875 3.976562 -8.941406 4.1875 -8.734375 C 4.40625 -8.523438 4.6875 -8.351562 5.03125 -8.21875 C 5.375 -8.082031 5.765625 -7.96875 6.203125 -7.875 C 6.648438 -7.78125 7.101562 -7.675781 7.5625 -7.5625 C 8.03125 -7.457031 8.484375 -7.320312 8.921875 -7.15625 C 9.367188 -6.988281 9.757812 -6.765625 10.09375 -6.484375 C 10.4375 -6.210938 10.71875 -5.867188 10.9375 -5.453125 C 11.15625 -5.035156 11.265625 -4.507812 11.265625 -3.875 C 11.265625 -3.3125 11.144531 -2.78125 10.90625 -2.28125 C 10.675781 -1.789062 10.332031 -1.359375 9.875 -0.984375 C 9.425781 -0.617188 8.863281 -0.332031 8.1875 -0.125 C 7.507812 0.0820312 6.734375 0.1875 5.859375 0.1875 Z M 5.859375 0.1875 "/></g></g></g><g fill="#737373" fill-opacity="1"><g transform="translate(107.996308, 307.638877)"><g><path d="M 4.640625 -13.25 L 8.140625 -13.25 L 12.859375 0 L 9.9375 0 L 9.078125 -2.453125 L 3.6875 -2.453125 L 2.84375 0 L -0.09375 0 Z M 8.15625 -5.015625 L 6.4375 -10.03125 L 6.34375 -10.03125 L 4.609375 -5.015625 Z M 8.15625 -5.015625 "/></g></g></g><g fill="#737373" fill-opacity="1"><g transform="translate(127.678264, 307.638877)"><g><path d="M 1.328125 -13.25 L 5.484375 -13.25 L 8.609375 -4.0625 L 8.703125 -4.0625 L 11.828125 -13.25 L 15.984375 -13.25 L 15.984375 0 L 13.15625 0 L 13.15625 -9.359375 L 13.0625 -9.359375 L 9.84375 0 L 7.46875 0 L 4.25 -9.359375 L 4.15625 -9.359375 L 4.15625 0 L 1.328125 0 Z M 1.328125 -13.25 "/></g></g></g><g fill="#737373" fill-opacity="1"><g transform="translate(151.901238, 307.638877)"><g><path d="M 1.328125 -13.25 L 6.8125 -13.25 C 7.488281 -13.25 8.113281 -13.132812 8.6875 -12.90625 C 9.269531 -12.675781 9.757812 -12.363281 10.15625 -11.96875 C 10.5625 -11.570312 10.878906 -11.09375 11.109375 -10.53125 C 11.335938 -9.96875 11.453125 -9.359375 11.453125 -8.703125 C 11.453125 -8.035156 11.335938 -7.421875 11.109375 -6.859375 C 10.878906 -6.304688 10.5625 -5.832031 10.15625 -5.4375 C 9.757812 -5.039062 9.269531 -4.726562 8.6875 -4.5 C 8.113281 -4.269531 7.488281 -4.15625 6.8125 -4.15625 L 4.15625 -4.15625 L 4.15625 0 L 1.328125 0 Z M 6.53125 -6.71875 C 7.195312 -6.71875 7.707031 -6.894531 8.0625 -7.25 C 8.425781 -7.601562 8.609375 -8.085938 8.609375 -8.703125 C 8.609375 -9.316406 8.425781 -9.800781 8.0625 -10.15625 C 7.707031 -10.507812 7.195312 -10.6875 6.53125 -10.6875 L 4.15625 -10.6875 L 4.15625 -6.71875 Z M 6.53125 -6.71875 "/></g></g></g><g fill="#737373" fill-opacity="1"><g transform="translate(171.015566, 307.638877)"><g><path d="M 1.328125 -13.25 L 4.15625 -13.25 L 4.15625 -2.546875 L 10.21875 -2.546875 L 10.21875 0 L 1.328125 0 Z M 1.328125 -13.25 "/></g></g></g><g fill="#737373" fill-opacity="1"><g transform="translate(188.521616, 307.638877)"><g><path d="M 1.328125 -13.25 L 10.3125 -13.25 L 10.3125 -10.6875 L 4.15625 -10.6875 L 4.15625 -7.859375 L 9.9375 -7.859375 L 9.9375 -5.484375 L 4.15625 -5.484375 L 4.15625 -2.546875 L 10.5 -2.546875 L 10.5 0 L 1.328125 0 Z M 1.328125 -13.25 "/></g></g></g><g fill="#737373" fill-opacity="1"><g transform="translate(206.7845, 307.638877)"><g/></g></g><g fill="#737373" fill-opacity="1"><g transform="translate(218.046632, 307.638877)"><g><path d="M 5.859375 0.1875 C 5.128906 0.1875 4.445312 0.0976562 3.8125 -0.078125 C 3.1875 -0.253906 2.632812 -0.515625 2.15625 -0.859375 C 1.6875 -1.203125 1.304688 -1.632812 1.015625 -2.15625 C 0.734375 -2.6875 0.550781 -3.289062 0.46875 -3.96875 L 3.3125 -3.96875 C 3.414062 -3.4375 3.6875 -3.019531 4.125 -2.71875 C 4.5625 -2.414062 5.140625 -2.265625 5.859375 -2.265625 C 6.753906 -2.265625 7.390625 -2.410156 7.765625 -2.703125 C 8.140625 -3.003906 8.328125 -3.394531 8.328125 -3.875 C 8.328125 -4.207031 8.21875 -4.46875 8 -4.65625 C 7.789062 -4.851562 7.515625 -5.007812 7.171875 -5.125 C 6.828125 -5.25 6.4375 -5.351562 6 -5.4375 C 5.5625 -5.519531 5.109375 -5.613281 4.640625 -5.71875 C 4.171875 -5.832031 3.710938 -5.96875 3.265625 -6.125 C 2.828125 -6.289062 2.4375 -6.515625 2.09375 -6.796875 C 1.757812 -7.085938 1.484375 -7.453125 1.265625 -7.890625 C 1.054688 -8.328125 0.953125 -8.882812 0.953125 -9.5625 C 0.953125 -10.195312 1.078125 -10.753906 1.328125 -11.234375 C 1.578125 -11.710938 1.925781 -12.113281 2.375 -12.4375 C 2.820312 -12.769531 3.34375 -13.019531 3.9375 -13.1875 C 4.539062 -13.351562 5.179688 -13.4375 5.859375 -13.4375 C 6.671875 -13.4375 7.378906 -13.335938 7.984375 -13.140625 C 8.585938 -12.941406 9.097656 -12.664062 9.515625 -12.3125 C 9.929688 -11.957031 10.257812 -11.546875 10.5 -11.078125 C 10.738281 -10.609375 10.894531 -10.101562 10.96875 -9.5625 L 8.140625 -9.5625 C 8.035156 -9.988281 7.800781 -10.328125 7.4375 -10.578125 C 7.070312 -10.835938 6.578125 -10.96875 5.953125 -10.96875 C 5.234375 -10.96875 4.707031 -10.828125 4.375 -10.546875 C 4.039062 -10.265625 3.875 -9.9375 3.875 -9.5625 C 3.875 -9.21875 3.976562 -8.941406 4.1875 -8.734375 C 4.40625 -8.523438 4.6875 -8.351562 5.03125 -8.21875 C 5.375 -8.082031 5.765625 -7.96875 6.203125 -7.875 C 6.648438 -7.78125 7.101562 -7.675781 7.5625 -7.5625 C 8.03125 -7.457031 8.484375 -7.320312 8.921875 -7.15625 C 9.367188 -6.988281 9.757812 -6.765625 10.09375 -6.484375 C 10.4375 -6.210938 10.71875 -5.867188 10.9375 -5.453125 C 11.15625 -5.035156 11.265625 -4.507812 11.265625 -3.875 C 11.265625 -3.3125 11.144531 -2.78125 10.90625 -2.28125 C 10.675781 -1.789062 10.332031 -1.359375 9.875 -0.984375 C 9.425781 -0.617188 8.863281 -0.332031 8.1875 -0.125 C 7.507812 0.0820312 6.734375 0.1875 5.859375 0.1875 Z M 5.859375 0.1875 "/></g></g></g><g fill="#737373" fill-opacity="1"><g transform="translate(236.782536, 307.638877)"><g><path d="M 4.640625 -13.25 L 8.140625 -13.25 L 12.859375 0 L 9.9375 0 L 9.078125 -2.453125 L 3.6875 -2.453125 L 2.84375 0 L -0.09375 0 Z M 8.15625 -5.015625 L 6.4375 -10.03125 L 6.34375 -10.03125 L 4.609375 -5.015625 Z M 8.15625 -5.015625 "/></g></g></g><g fill="#737373" fill-opacity="1"><g transform="translate(256.464493, 307.638877)"><g><path d="M 1.328125 -13.25 L 10.3125 -13.25 L 10.3125 -10.6875 L 4.15625 -10.6875 L 4.15625 -7.5625 L 9.84375 -7.5625 L 9.84375 -5.015625 L 4.15625 -5.015625 L 4.15625 0 L 1.328125 0 Z M 1.328125 -13.25 "/></g></g></g><g fill="#737373" fill-opacity="1"><g transform="translate(274.348953, 307.638877)"><g><path d="M 1.328125 -13.25 L 10.3125 -13.25 L 10.3125 -10.6875 L 4.15625 -10.6875 L 4.15625 -7.859375 L 9.9375 -7.859375 L 9.9375 -5.484375 L 4.15625 -5.484375 L 4.15625 -2.546875 L 10.5 -2.546875 L 10.5 0 L 1.328125 0 Z M 1.328125 -13.25 "/></g></g></g></svg>